<?xml version="1.0" standalone="no"?>
<!DOCTYPE svg PUBLIC "-//W3C//DTD SVG 20010904//EN"
 "http://www.w3.org/TR/2001/REC-SVG-20010904/DTD/svg10.dtd">
<svg version="1.0" xmlns="http://www.w3.org/2000/svg"
 width="100.000000pt" height="100.000000pt" viewBox="0 0 100.000000 100.000000"
 preserveAspectRatio="xMidYMid meet">

<g transform="translate(0.000000,100.000000) scale(0.100000,-0.100000)"
fill="#000000" stroke="none">
<path d="M435 815 c3 -53 -2 -83 -26 -153 -37 -108 -46 -212 -29 -322 10 -67
10 -92 0 -137 -21 -84 -15 -88 120 -88 135 0 141 4 120 88 -10 45 -10 70 0
137 17 110 8 214 -29 322 -24 70 -29 100 -26 153 l4 65 -69 0 -69 0 4 -65z
m108 24 c3 -11 3 -35 1 -52 -4 -20 6 -66 25 -124 17 -51 31 -95 31 -98 0 -4
-10 -5 -22 -3 -15 2 -25 15 -34 43 -14 47 -18 35 -5 -13 l10 -32 -49 0 -49 0
10 32 c13 48 9 60 -5 13 -9 -28 -19 -41 -34 -43 -27 -4 -27 -9 -2 72 l21 66
47 2 47 1 -44 4 c-39 4 -42 6 -37 26 3 12 6 30 6 39 0 11 10 18 33 21 31 4 31
4 -5 5 -40 2 -41 4 -32 40 5 18 13 22 44 22 30 0 39 -4 43 -21z m61 -305 c3
-9 6 -38 6 -65 l0 -49 -110 0 -110 0 0 49 c0 82 -1 81 110 81 80 0 99 -3 104
-16z m-154 -196 c6 -40 13 -77 16 -83 5 -12 -5 86 -13 126 -5 29 -5 29 47 29
l53 0 -7 -32 c-4 -24 -3 -29 4 -18 5 8 10 23 10 33 0 12 8 17 26 17 25 0 25
-1 17 -47 -7 -44 -8 -106 -1 -193 3 -30 0 -35 -19 -38 -18 -3 -23 2 -23 20 -1
13 -7 46 -16 73 -14 50 -14 37 2 -57 l7 -38 -53 0 -52 0 4 34 c2 19 0 32 -4
30 -4 -3 -8 -19 -8 -35 0 -26 -3 -30 -22 -27 -20 3 -23 8 -20 38 7 87 6 149
-1 193 -8 46 -7 47 16 47 23 0 26 -5 37 -72z"/>
<path d="M456 223 c-6 -14 -5 -15 5 -6 7 7 10 15 7 18 -3 3 -9 -2 -12 -12z"/>
</g>
</svg>
