<?xml version="1.0" standalone="no"?>
<!DOCTYPE svg PUBLIC "-//W3C//DTD SVG 20010904//EN"
 "http://www.w3.org/TR/2001/REC-SVG-20010904/DTD/svg10.dtd">
<svg version="1.0" xmlns="http://www.w3.org/2000/svg"
 width="50.000000pt" height="50.000000pt" viewBox="0 0 50.000000 50.000000"
 preserveAspectRatio="xMidYMid meet">

<g transform="translate(0.000000,50.000000) scale(0.100000,-0.100000)"
fill="#000000" stroke="none">
<path d="M201 474 c-21 -26 -27 -44 -15 -44 3 0 15 11 26 26 11 14 23 23 26
20 3 -3 -3 -14 -12 -25 -26 -28 -3 -34 24 -6 19 20 21 27 10 40 -18 22 -36 19
-59 -11z"/>
<path d="M271 451 c-12 -16 -21 -34 -21 -40 0 -20 15 -11 33 19 10 17 25 30
33 30 20 0 17 -12 -11 -39 -24 -23 -33 -42 -17 -40 4 0 20 16 36 35 23 28 26
37 16 49 -19 23 -47 18 -69 -14z"/>
<path d="M345 410 c-51 -52 -37 -66 15 -15 33 32 42 37 52 26 11 -11 10 -14
-1 -18 -23 -9 -76 -61 -69 -68 4 -5 77 43 107 71 8 7 -32 44 -49 44 -9 0 -33
-18 -55 -40z"/>
<path d="M109 383 c-46 -42 -89 -119 -89 -161 0 -58 115 -193 180 -212 50 -14
125 -12 165 4 46 20 53 52 26 122 -11 31 -21 70 -21 88 0 64 -17 89 -98 144
-42 29 -87 52 -99 52 -13 0 -41 -17 -64 -37z m137 -20 l55 -37 -34 -17 c-60
-31 -126 -140 -127 -209 l-1 -35 -30 35 c-38 44 -69 103 -69 130 0 53 90 170
130 170 11 0 45 -17 76 -37z m94 -82 c5 -11 10 -34 10 -52 0 -18 10 -63 22
-101 28 -86 20 -98 -74 -105 -111 -9 -155 32 -128 120 14 48 61 119 92 142 31
21 65 19 78 -4z"/>
<path d="M261 221 c-21 -21 -30 -68 -11 -56 6 3 10 11 10 17 0 6 7 20 17 30
23 26 9 34 -16 9z"/>
<path d="M320 115 c0 -30 -5 -37 -32 -49 -31 -13 -31 -14 -8 -15 65 -2 80 16
64 77 -10 34 -24 26 -24 -13z"/>
</g>
</svg>
