<?xml version="1.0" standalone="no"?>
<!DOCTYPE svg PUBLIC "-//W3C//DTD SVG 20010904//EN"
 "http://www.w3.org/TR/2001/REC-SVG-20010904/DTD/svg10.dtd">
<svg version="1.0" xmlns="http://www.w3.org/2000/svg"
 width="80.000000pt" height="80.000000pt" viewBox="0 0 80.000000 80.000000"
 preserveAspectRatio="xMidYMid meet">

<g transform="translate(0.000000,80.000000) scale(0.100000,-0.100000)"
fill="#000000" stroke="none">
<path d="M270 708 c0 -20 -12 -51 -30 -78 l-30 -45 0 -262 0 -263 190 0 190 0
0 263 c0 261 0 262 -25 306 -14 23 -25 58 -25 77 l0 34 -135 0 -135 0 0 -32z
m250 -12 c0 -22 -36 -97 -50 -103 -3 -2 -4 -59 -2 -128 3 -104 1 -125 -11
-125 -8 0 -27 -3 -43 -6 -25 -4 -36 2 -77 41 -40 39 -53 46 -77 43 l-30 -5 0
75 c0 76 14 121 49 159 13 13 17 29 14 46 l-5 27 116 0 116 0 0 -24z m33 -87
c14 -26 17 -57 17 -190 0 -176 -5 -188 -54 -125 -25 33 -26 40 -26 160 0 100
3 130 18 155 9 17 19 31 22 31 3 0 13 -14 23 -31z m-214 -260 c38 -39 41 -40
85 -34 l46 7 0 -121 0 -121 -120 0 -120 0 0 153 c0 85 3 157 7 161 16 16 65
-5 102 -45z m216 -109 c12 0 15 -14 15 -80 l0 -80 -40 0 -40 0 0 106 0 107 25
-27 c13 -14 31 -26 40 -26z"/>
<path d="M320 670 c0 -5 5 -10 10 -10 6 0 10 5 10 10 0 6 -4 10 -10 10 -5 0
-10 -4 -10 -10z"/>
<path d="M360 670 c0 -5 5 -10 10 -10 6 0 10 5 10 10 0 6 -4 10 -10 10 -5 0
-10 -4 -10 -10z"/>
<path d="M400 670 c0 -5 5 -10 10 -10 6 0 10 5 10 10 0 6 -4 10 -10 10 -5 0
-10 -4 -10 -10z"/>
<path d="M440 670 c0 -5 5 -10 10 -10 6 0 10 5 10 10 0 6 -4 10 -10 10 -5 0
-10 -4 -10 -10z"/>
<path d="M480 670 c0 -5 5 -10 10 -10 6 0 10 5 10 10 0 6 -4 10 -10 10 -5 0
-10 -4 -10 -10z"/>
<path d="M260 580 c0 -5 5 -10 10 -10 6 0 10 5 10 10 0 6 -4 10 -10 10 -5 0
-10 -4 -10 -10z"/>
<path d="M300 580 c0 -5 5 -10 10 -10 6 0 10 5 10 10 0 6 -4 10 -10 10 -5 0
-10 -4 -10 -10z"/>
<path d="M340 580 c0 -5 5 -10 10 -10 6 0 10 5 10 10 0 6 -4 10 -10 10 -5 0
-10 -4 -10 -10z"/>
<path d="M380 580 c0 -5 5 -10 10 -10 6 0 10 5 10 10 0 6 -4 10 -10 10 -5 0
-10 -4 -10 -10z"/>
<path d="M420 580 c0 -5 5 -10 10 -10 6 0 10 5 10 10 0 6 -4 10 -10 10 -5 0
-10 -4 -10 -10z"/>
</g>
</svg>
